<?xml version="1.0" encoding="utf-8"?>
<!-- Generator: Adobe Illustrator 28.1.0, SVG Export Plug-In . SVG Version: 6.00 Build 0)  -->
<svg version="1.1" id="Layer_1" xmlns="http://www.w3.org/2000/svg" xmlns:xlink="http://www.w3.org/1999/xlink" x="0px" y="0px"
	 viewBox="0 0 167.5 40" style="enable-background:new 0 0 167.5 40;" xml:space="preserve">
<style type="text/css">
	.st0{fill:#00843D;}
</style>
<path id="Tracciato_11783" class="st0" d="M24.1,22.9c0.1-0.7,0.2-1.5,0.2-2.3c-1-0.2-2-0.4-3.1-0.5c0,1.2-0.2,2.4-0.4,3.6
	c-3.4,0.5-6.8,0.5-10.2,0c-0.5-3.4-0.5-6.8,0-10.2c3.4-0.5,6.8-0.5,10.2,0c0.2,1.2,0.3,2.4,0.4,3.6c1.1-0.1,2.1-0.3,3.1-0.5
	c0-0.8-0.1-1.5-0.2-2.3c1,0.4,2,0.9,2.8,1.6c1-0.3,2-0.8,3-1.3c-1.8-1.8-4-3.1-6.5-3.7c-1.3-4.8-4-8-7.7-8s-6.4,3.2-7.7,8
	c-4.8,1.3-8,4-8,7.7s3.2,6.4,8,7.7c1.3,4.8,4,8,7.7,8s6.4-3.2,7.7-8c2.5-0.6,4.7-1.8,6.5-3.7c-0.9-0.6-1.9-1-3-1.3
	C26.1,22,25.1,22.5,24.1,22.9z M15.7,6c1.8,0,3.3,1.5,4.3,4.2c-2.8-0.4-5.7-0.4-8.6,0C12.4,7.5,13.9,6,15.7,6z M7.3,22.9
	c-2.7-1-4.2-2.5-4.2-4.3s1.5-3.3,4.2-4.3C7,17.2,7,20,7.3,22.9z M15.7,31.2c-1.8,0-3.3-1.5-4.3-4.2c2.8,0.4,5.7,0.4,8.6,0
	C19,29.7,17.5,31.2,15.7,31.2L15.7,31.2z M49.2,19.6c0.5,0.6,0.7,1.4,0.7,2.2c0.1,1.1-0.5,2.2-1.4,2.9c-1.3,0.7-2.7,1.1-4.2,1H37
	V11.5h6.9c1.4-0.1,2.8,0.3,4,1c0.9,0.6,1.4,1.6,1.4,2.7c0,1.3-0.7,2.5-1.9,3.1C48,18.5,48.7,19,49.2,19.6z M40.1,14v3.3h3.3
	c0.6,0,1.3-0.1,1.8-0.4c0.4-0.3,0.7-0.8,0.6-1.3c0-0.5-0.2-1-0.6-1.2c-0.6-0.3-1.2-0.5-1.8-0.4L40.1,14z M45.9,22.8
	c0.4-0.3,0.7-0.8,0.7-1.3c0-1.2-0.9-1.8-2.6-1.8h-3.8v3.5H44C44.6,23.2,45.3,23.1,45.9,22.8L45.9,22.8z M54.7,25
	c-1.1-0.6-2.1-1.5-2.7-2.6c-1.3-2.3-1.3-5.2,0-7.5c0.7-1.1,1.6-2,2.7-2.6c2.3-1.1,4.9-1.2,7.2-0.3c1,0.4,1.8,1.1,2.5,1.9l-2.1,1.9
	c-0.9-1.1-2.2-1.7-3.6-1.7c-0.8,0-1.6,0.2-2.3,0.6c-0.7,0.4-1.2,0.9-1.6,1.6c-0.8,1.5-0.8,3.2,0,4.7c0.4,0.7,0.9,1.2,1.6,1.6
	c0.7,0.4,1.5,0.6,2.3,0.6c1.4,0,2.7-0.6,3.6-1.7l2.2,1.9c-0.7,0.8-1.5,1.5-2.5,1.9c-1.1,0.4-2.2,0.7-3.3,0.6
	C57.3,25.9,55.9,25.6,54.7,25L54.7,25z M68.8,25c-1.1-0.6-2.1-1.5-2.7-2.6c-1.3-2.3-1.3-5.2,0-7.5c0.7-1.1,1.6-2,2.7-2.6
	c2.3-1.1,4.9-1.2,7.2-0.3c1,0.4,1.8,1.1,2.5,1.9l-2.1,1.9c-0.9-1.1-2.2-1.7-3.6-1.7c-0.8,0-1.6,0.2-2.3,0.6
	c-0.7,0.4-1.2,0.9-1.6,1.6c-0.8,1.5-0.8,3.2,0,4.7c0.4,0.7,0.9,1.2,1.6,1.6c0.7,0.4,1.5,0.6,2.3,0.6c1.4,0,2.7-0.6,3.6-1.7l2.1,1.9
	c-0.7,0.8-1.5,1.5-2.5,1.9c-1.1,0.4-2.2,0.7-3.3,0.6C71.3,25.9,70,25.6,68.8,25L68.8,25z"/>
<g>
	<path id="Tracciato_11784" d="M105,13.9c0.5,0.6,0.7,1.4,0.7,2.2c0.1,1.1-0.5,2.2-1.4,2.9c-1.3,0.7-2.7,1.1-4.2,1h-7.4V5.8h6.9
		c1.4-0.1,2.8,0.3,4,1c0.9,0.6,1.4,1.6,1.4,2.7c0,1.3-0.7,2.5-1.9,3.1C103.8,12.8,104.5,13.3,105,13.9z M95.9,8.3v3.3h3.2
		c0.6,0,1.3-0.1,1.8-0.4s0.8-0.7,0.8-1.2s-0.2-1-0.6-1.2c-0.6-0.4-1.3-0.5-1.9-0.5H95.9z M101.7,17.1c0.4-0.3,0.7-0.8,0.7-1.3
		c0-1.2-0.9-1.8-2.6-1.8h-3.9v3.5h3.8C100.4,17.5,101.1,17.4,101.7,17.1L101.7,17.1z"/>
	<path id="Tracciato_11785" d="M117.2,16.9h-6.5l-1.3,3h-3.3l6.3-14.1h3.2l6.3,14.1h-3.4L117.2,16.9z M116.2,14.5L114,9.1l-2.3,5.4
		H116.2z"/>
	<path id="Tracciato_11786" d="M136.1,5.8v14.1h-2.7l-7-8.6v8.6h-3.2V5.8h2.7l7,8.6V5.8H136.1z"/>
	<path id="Tracciato_11787" d="M142.1,19.3c-1.1-0.6-2.1-1.5-2.7-2.6c-1.3-2.3-1.3-5.2,0-7.5c0.7-1.1,1.6-2,2.7-2.6
		c2.3-1.1,4.9-1.2,7.2-0.3c1,0.4,1.8,1,2.5,1.9l-2.1,1.9c-0.9-1.1-2.2-1.7-3.5-1.7c-0.8,0-1.6,0.2-2.3,0.6c-0.7,0.4-1.2,0.9-1.6,1.6
		c-0.8,1.5-0.8,3.2,0,4.7c0.4,0.7,0.9,1.2,1.6,1.6s1.5,0.6,2.3,0.6c1.4,0,2.7-0.6,3.5-1.7l2.1,1.9c-0.7,0.8-1.5,1.5-2.5,1.9
		c-1.1,0.4-2.2,0.7-3.3,0.6C144.7,20.2,143.3,19.9,142.1,19.3z"/>
	<path id="Tracciato_11788" d="M162.9,16.9h-6.6l-1.2,3h-3.4L158,5.8h3.2l6.3,14.1h-3.4L162.9,16.9z M161.8,14.5l-2.2-5.4l-2.2,5.4
		H161.8z"/>
	<path id="Tracciato_11789" d="M92.7,24.4h1.6v6.8h-1.6V24.4z M97,30.9c-0.5-0.3-1-0.7-1.3-1.3c-0.6-1.1-0.6-2.5,0-3.6
		c0.3-0.5,0.8-1,1.3-1.3c1.1-0.5,2.4-0.6,3.5-0.1c0.5,0.2,0.9,0.5,1.2,0.9l-1,0.9c-0.4-0.5-1.1-0.8-1.7-0.8c-0.4,0-0.8,0.1-1.1,0.3
		c-0.3,0.2-0.6,0.4-0.8,0.8c-0.4,0.7-0.4,1.6,0,2.3c0.2,0.3,0.4,0.6,0.8,0.8c0.3,0.2,0.7,0.3,1.1,0.3c0.7,0,1.3-0.3,1.7-0.8l1,0.9
		c-0.3,0.4-0.7,0.7-1.2,0.9c-0.5,0.2-1.1,0.3-1.6,0.3C98.2,31.4,97.6,31.2,97,30.9 M103.9,30.9c-0.5-0.3-1-0.7-1.3-1.3
		c-0.6-1.1-0.6-2.5,0-3.6c0.3-0.5,0.8-1,1.3-1.3c1.1-0.6,2.4-0.6,3.5-0.1c0.5,0.2,0.9,0.5,1.2,0.9l-1,0.9c-0.4-0.5-1.1-0.8-1.7-0.8
		c-0.4,0-0.8,0.1-1.1,0.3c-0.3,0.2-0.6,0.4-0.8,0.8c-0.4,0.7-0.4,1.6,0,2.3c0.2,0.3,0.4,0.6,0.8,0.8c0.3,0.2,0.7,0.3,1.1,0.3
		c0.7,0,1.3-0.3,1.7-0.8l1,0.9c-0.3,0.4-0.7,0.7-1.2,0.9c-0.5,0.2-1.1,0.3-1.6,0.3C105.1,31.4,104.5,31.2,103.9,30.9 M113.7,31.3
		l-1.3-1.9h-1.5v1.9h-1.6v-6.8h3c0.5,0,1.1,0.1,1.6,0.3c0.4,0.2,0.8,0.5,1,0.9c0.2,0.4,0.4,0.9,0.4,1.3c0,0.9-0.5,1.8-1.4,2.2
		l1.5,2.2L113.7,31.3z M113.3,26c-0.3-0.2-0.7-0.3-1.1-0.3h-1.3v2.4h1.3c0.4,0,0.8-0.1,1.1-0.3C113.8,27.3,113.8,26.5,113.3,26
		C113.4,26,113.3,26,113.3,26 M121.2,30v1.3h-5.1v-6.8h5v1.3h-3.4v1.5h3v1.2h-3v1.6L121.2,30L121.2,30z M127,29.8h-3.2l-0.6,1.5
		h-1.6l3-6.8h1.5l3.1,6.8h-1.7L127,29.8z M126.5,28.6l-1.1-2.6l-1.1,2.6H126.5z"/>
</g>
</svg>
