<?xml version="1.0" encoding="UTF-8"?>
<svg id="Livello_1" data-name="Livello 1" xmlns="http://www.w3.org/2000/svg" viewBox="0 0 565.7 176.8">
  <defs>
    <style>
      .cls-1 {
        stroke-width: 0px;
      }
    </style>
  </defs>
  <path class="cls-1" d="M242.8,84.95l-35-35c-1.9-1.9-5-1.9-6.9,0l-21.4,21.4c-9.4,9.4-9.4,24.5,0,33.9l21.4,21.4c1.9,1.9,5,1.9,6.9,0l35-35c1.8-1.7,1.8-4.8,0-6.7Z"/>
  <path class="cls-1" d="M320.7,50.15c-1.9-1.9-5-1.9-6.9,0l-35,35c-1.9,1.9-1.9,5,0,6.9l35,35c1.9,1.9,5,1.9,6.9,0l21.4-21.4c9.4-9.4,9.4-24.5,0-33.9l-21.4-21.6Z"/>
  <path class="cls-1" d="M257.4,70.35c1.9,1.9,5,1.9,6.9,0l35-35c1.9-1.9,1.9-5,0-6.9l-21.5-21.4c-9.4-9.4-24.5-9.4-33.9,0l-21.4,21.4c-1.9,1.9-1.9,5,0,6.9l34.9,35Z"/>
  <path class="cls-1" d="M264.3,106.45c-1.9-1.9-5-1.9-6.9,0l-35,35c-1.9,1.9-1.9,5,0,6.9l21.4,21.4c9.4,9.4,24.5,9.4,33.9,0l21.4-21.4c1.9-1.9,1.9-5,0-6.9l-34.8-35Z"/>
  <rect class="cls-1" x="110.2" y="41.15" width="10.3" height="94.8"/>
  <rect class="cls-1" x="110.2" y="41.15" width="10.3" height="94.8"/>
  <polygon class="cls-1" points="523 125.65 523 41.15 512.7 41.15 512.7 41.15 512.6 41.15 512.6 135.95 512.6 135.95 512.6 135.95 565.7 136.05 565.7 135.95 565.7 135.95 565.7 125.65 523 125.65"/>
  <polygon class="cls-1" points="411.1 125.65 411.1 93.75 455.9 93.75 455.9 83.45 411.1 83.35 411.1 51.45 460.7 51.55 460.7 41.15 400.8 41.15 400.8 41.15 400.7 135.95 460.7 135.95 460.7 126.45 460.7 126.45 460.7 125.65 411.1 125.65"/>
  <path class="cls-1" d="M55.2,54.35c-2-3.3-4.5-6-7.7-8-3-1.9-6.3-3.3-10-4.1-3.5-.8-7-1.1-10.4-1.1H0v94.8h10.4v-42.3h18.5c3.9,0,7.6-.6,11-1.7,3.6-1.1,6.7-2.8,9.4-5,2.7-2.3,5-5.1,6.6-8.5s2.4-7.3,2.4-11.6c-.1-4.8-1.1-9.1-3.1-12.5ZM46,74.45c-1.1,2.1-2.4,3.7-4.1,5-1.7,1.3-3.7,2.3-5.9,2.9-2.4.6-4.8,1-7.1,1H10.4v-31.9h17.9c2.4,0,4.8.3,7.3.9,2.3.6,4.4,1.4,6.2,2.7,1.7,1.1,3.1,2.6,4.2,4.6,1.1,1.9,1.6,4.3,1.6,7.3s-.5,5.5-1.6,7.5Z"/>
</svg>