<?xml version="1.0" encoding="utf-8"?>
<!-- Generator: Adobe Illustrator 28.1.0, SVG Export Plug-In . SVG Version: 6.00 Build 0)  -->
<svg version="1.1" id="Layer_1" xmlns="http://www.w3.org/2000/svg" xmlns:xlink="http://www.w3.org/1999/xlink" x="0px" y="0px"
	 viewBox="0 0 85 58" style="enable-background:new 0 0 85 58;" xml:space="preserve">
<style type="text/css">
	.st0{clip-path:url(#SVGID_00000040552689753370098620000005913540628272685758_);}
</style>
<g>
	<defs>
		<rect id="SVGID_1_" width="85" height="58"/>
	</defs>
	<clipPath id="SVGID_00000015338641589295248960000007969990855502809519_">
		<use xlink:href="#SVGID_1_"  style="overflow:visible;"/>
	</clipPath>
	<g style="clip-path:url(#SVGID_00000015338641589295248960000007969990855502809519_);">
		<path d="M10.1,35.7c0,1.9-1.3,2.9-2.8,3.1c-0.5,0.1-0.9,0.1-1.5,0.1H4.3v3.8H2.3V32.6h3.6c0.6,0,1,0,1.5,0.1
			C8.9,32.8,10.1,33.9,10.1,35.7z M7.9,35.7c0-1-0.5-1.4-1.2-1.5c-0.2,0-0.5,0-0.9,0H4.3v3.1h1.5c0.4,0,0.7,0,0.9,0
			C7.4,37.1,7.9,36.7,7.9,35.7L7.9,35.7z"/>
		<path d="M19.8,42.7h-2.3c-0.3-0.7-0.4-1.3-0.5-2.3c-0.1-1.1-0.6-1.8-1.4-1.8c-0.3,0-0.5,0-0.8,0h-1.2v4.1h-2.1V32.6h3.8
			c0.6,0,1,0,1.5,0.1c1.5,0.2,2.7,0.9,2.7,2.7c0,1.3-0.8,2.1-2,2.5c1,0.4,1.4,1.2,1.5,2.4C19.2,41.4,19.4,42.1,19.8,42.7L19.8,42.7z
			 M15,37.1c0.4,0,0.6,0,0.8,0c0.8-0.1,1.5-0.5,1.5-1.5c0-1-0.6-1.3-1.4-1.4c-0.2,0-0.5,0-0.9,0h-1.5v3H15z"/>
		<path d="M30.9,37.6c0,3.2-1.9,5.3-5.1,5.3s-5.1-2.1-5.1-5.3c0-3.2,1.9-5.3,5.1-5.3C29,32.3,30.9,34.4,30.9,37.6z M28.8,37.6
			c0-2.4-1.1-3.8-2.9-3.8c-1.8,0-2.9,1.4-2.9,3.8c0,2.4,1.1,3.8,2.9,3.8C27.7,41.4,28.8,40,28.8,37.6z"/>
		<path d="M34.8,36.8h4.7v1.6h-4.7v4.3h-2.1V32.6H40v1.6h-5.2L34.8,36.8L34.8,36.8z"/>
		<path d="M49,42.7h-7.4V32.6h7.3v1.6h-5.2v2.7h4.8v1.6h-4.8v2.7H49V42.7L49,42.7z"/>
		<path d="M55.3,34.1v8.6h-2.1v-8.6h-3.5v-1.6h9v1.6H55.3z"/>
		<path d="M61.2,39.7l-1,3.1H58l3.7-10.2h2.6l3.6,10.2h-2.2l-1-3.1H61.2z M61.7,38h2.4l-1.2-3.8L61.7,38L61.7,38z"/>
		<path d="M81.1,37.5c0,3.1-1.9,4.9-4.3,5.2c-0.5,0.1-0.8,0.1-1.3,0.1H72V32.6h3.5c0.6,0,0.8,0,1.3,0.1
			C79.3,32.9,81.1,34.4,81.1,37.5L81.1,37.5z M79,37.5c0-2-1-3.1-2.5-3.3c-0.3,0-0.6-0.1-1.1-0.1h-1.3v7h1.2c0.4,0,0.8,0,1.1,0
			C77.9,40.9,79,39.6,79,37.5z"/>
		<path d="M82.9,42.7V32.6H85v10.2H82.9z"/>
		<path d="M10.1,50.1H7.8c-0.1-1.1-0.8-1.8-1.9-1.8c-0.9,0-1.6,0.4-1.6,1.3c0,0.9,0.6,1.4,2.4,1.8c2.4,0.6,3.5,1.7,3.5,3.4
			c0,2.1-1.9,3.2-4.1,3.2c-2.7,0-4.4-1.2-4.6-3.5h2.3c0.2,1.2,1.2,1.8,2.3,1.8c1,0,1.8-0.5,1.8-1.4c0-0.9-0.6-1.5-2.2-1.8
			C3.5,52.6,2,51.8,2,49.8c0-2,1.8-3.2,4-3.2C8.7,46.6,9.9,48.1,10.1,50.1L10.1,50.1z"/>
		<path d="M20.5,50.2c0,2-1.4,3.1-3,3.3c-0.5,0.1-1,0.1-1.6,0.1h-1.6v4.1h-2.2V46.8h3.8c0.6,0,1.1,0,1.6,0.1
			C19.2,47.1,20.5,48.2,20.5,50.2z M18.2,50.2c0-1-0.5-1.5-1.3-1.6c-0.2,0-0.6,0-1,0h-1.6v3.4h1.6c0.4,0,0.7,0,1,0
			C17.6,51.8,18.2,51.3,18.2,50.2z"/>
		<path d="M30.1,57.8h-8V46.8h7.8v1.7h-5.6v2.9h5.2v1.7h-5.2v2.9h5.8V57.8L30.1,57.8z"/>
		<path d="M40.8,57.8h-2.4c-0.3-0.7-0.4-1.4-0.5-2.4c-0.1-1.2-0.6-1.9-1.5-2c-0.3,0-0.6,0-0.9,0h-1.3v4.4H32V46.8h4
			c0.6,0,1.1,0,1.6,0.1c1.6,0.2,2.9,1,2.9,2.9c0,1.4-0.8,2.3-2.2,2.7c1.1,0.4,1.5,1.3,1.6,2.5C40.1,56.4,40.3,57.2,40.8,57.8
			L40.8,57.8z M35.7,51.7c0.4,0,0.7,0,0.9,0c0.9-0.1,1.6-0.5,1.6-1.6c0-1.1-0.6-1.4-1.5-1.6c-0.3,0-0.5,0-0.9,0h-1.6v3.2H35.7
			L35.7,51.7z"/>
		<path d="M44.7,54.5l-1.1,3.3h-2.4l4-10.9h2.8L52,57.8h-2.4l-1.1-3.3H44.7z M45.3,52.8h2.6l-1.3-4L45.3,52.8z"/>
		<path d="M60,57.8l-4.6-8.3c0.1,1.2,0.1,2.4,0.1,3.4v4.9h-2.2V46.8h2.9l4.7,8.5c-0.1-1.2-0.1-2.5-0.1-3.4v-5H63l0,10.9H60L60,57.8z
			"/>
		<path d="M73.7,57.8h-8.8v-1.7l6-7.6h-5.6v-1.7h8.2v1.7l-6,7.5h6.1V57.8z"/>
		<path d="M77.8,54.5l-1.1,3.3h-2.4l4-10.9h2.8L85,57.8h-2.4l-1.1-3.3H77.8z M78.3,52.8h2.6l-1.3-4L78.3,52.8z"/>
		<path d="M15.9,11.9c-0.8-2.7-2.8-4.9-5.2-6.3C7.9,4,4.7,3.3,1.6,2.9C0.8,2.8,0,3.7,0,4.5c0.3,6.1,0.6,12.1,0.8,18.2
			c0.1,1.7,0.2,3.4,0.2,5.1v0.1c0,0.1,0,0.3,0.1,0.4c0.1,0.2,0.2,0.4,0.3,0.5c0,0,0.1,0.1,0.1,0.1c0.3,0.3,0.7,0.5,1.1,0.5
			c0,0,0.1,0,0.1,0c0.1,0,0.2,0,0.3,0c2.5-0.6,4.8-1.5,6.8-3c0.9-0.7,1.6-1.5,2.4-2.3c0.9-1.1,1.8-2.2,2.5-3.5
			C16.1,17.9,16.7,14.8,15.9,11.9z M2,6.1C2,6.1,2,6.1,2,6.1C2,6.1,2,6.1,2,6.1C1.9,6.1,1.9,6.1,2,6.1C1.9,6.1,1.9,6.1,2,6.1
			C1.9,6.1,2,6.1,2,6.1L2,6.1z M13.1,15.3c0,0.1,0,0.3,0,0.4c0,0,0,0,0,0c0,0,0,0.1,0,0.1c-0.1,0.3-0.1,0.6-0.2,0.9
			c-0.1,0.3-0.2,0.6-0.3,0.9c0,0.1-0.1,0.2-0.1,0.4c0,0,0,0.1-0.1,0.1c0,0,0,0,0,0c0,0,0,0.1,0,0.1c0,0,0,0,0,0
			c-0.3,0.6-0.6,1.2-0.9,1.7c-0.2,0.3-0.4,0.5-0.5,0.7c0,0,0,0,0,0c0,0,0,0,0,0l0,0c0,0-0.1,0.1-0.1,0.1c-0.1,0.1-0.2,0.2-0.3,0.4
			C9.7,22.2,9,23,8.2,23.7C8.1,23.8,8,23.9,7.9,24c0,0,0,0-0.1,0h0c0,0,0,0,0,0c0,0,0,0-0.1,0.1c0,0-0.1,0-0.1,0
			c0,0,0.1-0.1,0.1-0.1c-0.2,0.1-0.5,0.3-0.6,0.4c-0.5,0.3-0.9,0.5-1.4,0.8c-0.1,0-0.1,0.1-0.2,0.1c0,0,0,0,0,0c0,0,0,0,0,0
			c0,0-0.2,0.1-0.3,0.1c-0.3,0.1-0.6,0.2-0.9,0.3c0,0-0.1,0-0.1,0C3.9,20.5,3.6,15.1,3.4,9.7C3.3,8.5,3.3,7.4,3.2,6.3
			C3.8,6.4,4.4,6.5,5,6.7C5.6,6.8,6.2,7,6.8,7.2c0.1,0,0.3,0.1,0.4,0.2c0,0,0.2,0.1,0.3,0.1c0,0,0,0,0,0c0,0,0,0,0,0c0,0,0,0,0,0
			C7.7,7.6,8,7.7,8.2,7.8c0.5,0.3,1.1,0.6,1.6,0.9C9.9,8.8,10,8.9,10.1,9c0,0,0,0,0.1,0v0c0,0,0,0,0,0c0,0,0,0,0,0
			c0.2,0.2,0.4,0.4,0.7,0.6c0.2,0.2,0.4,0.4,0.6,0.6c0.1,0.1,0.2,0.2,0.2,0.3c0,0,0,0,0,0c0,0,0,0,0,0l0,0l0,0v0c0,0,0,0,0,0
			c0,0,0,0,0,0s0,0,0,0c0,0,0,0.1,0,0.1c0.2,0.2,0.3,0.5,0.4,0.7c0.1,0.1,0.2,0.3,0.2,0.5c0,0.1,0.1,0.1,0.1,0.2c0-0.2,0,0,0,0
			c0,0,0,0,0,0c0,0,0,0,0,0c0.1,0.3,0.2,0.5,0.3,0.8c0.1,0.3,0.2,0.7,0.2,1c0,0,0-0.1,0-0.2v0.1c0,0.1,0,0.2,0,0.2
			c0,0.1,0,0.3,0,0.4C13.1,14.7,13.1,15,13.1,15.3L13.1,15.3z"/>
		<path d="M2,6.1C2,6.1,2,6.1,2,6.1C1.9,6.1,1.9,6.1,2,6.1c-0.1,0-0.1,0-0.1,0C1.9,6.1,2,6.1,2,6.1C2,6.1,2,6.1,2,6.1L2,6.1z"/>
		<path d="M2.1,6.1C2.1,6.1,2,6.1,2.1,6.1C2,6.1,2,6.1,2.1,6.1C2.1,6.1,2.1,6.1,2.1,6.1z"/>
		<path d="M7.5,7.5C7.5,7.5,7.5,7.5,7.5,7.5C7.5,7.5,7.5,7.5,7.5,7.5C7.5,7.5,7.5,7.5,7.5,7.5C7.5,7.5,7.5,7.5,7.5,7.5L7.5,7.5z"/>
		<path d="M11.8,10.5C11.8,10.5,11.8,10.5,11.8,10.5C11.7,10.5,11.8,10.5,11.8,10.5z"/>
		<path d="M12.6,12C12.6,12,12.6,12,12.6,12C12.6,12,12.6,12,12.6,12C12.5,11.8,12.6,12,12.6,12z"/>
		<path d="M33.1,16c-1.1,0.1-2.2,0.2-3.3,0.2c-0.5-1.9-1.1-3.8-1.7-5.7c-0.6-1.9-1.3-3.9-1.9-5.8c-0.2-0.6-0.8-1.2-1.5-1.1
			c-0.7,0-1.3,0.5-1.5,1.1c-1.6,4.4-3.2,8.7-4.6,13.2l0,0c0,0.1-0.1,0.3-0.1,0.4c-0.3,0.9-0.6,1.8-0.8,2.7c-0.5,1.7-0.9,3.4-1.4,5.1
			c-0.2,0.8,0.3,1.7,1.1,1.9c0.8,0.2,1.7-0.2,1.9-1.1c0.6-2.3,1.2-4.7,1.9-7c2-0.2,4.1-0.3,6.1-0.5c0.2,0.9,0.4,1.8,0.6,2.7
			c0.4,1.7,0.7,3.5,1,5.3c0.2,0.8,1.2,1.3,1.9,1.1c0.9-0.3,1.3-1.1,1.1-1.9c-0.5-2.5-0.9-4.9-1.5-7.4c0.8-0.1,1.7-0.1,2.5-0.2
			c0.8-0.1,1.6-0.7,1.6-1.6C34.6,16.8,33.9,16,33.1,16z M22.2,16.8c0.7-2.1,1.4-4.2,2.1-6.3c0.1-0.2,0.2-0.5,0.3-0.7
			c0.7,2.2,1.4,4.4,2,6.6C25.1,16.6,23.6,16.7,22.2,16.8z"/>
		<path d="M18.5,17.9c0,0.1-0.1,0.3-0.1,0.4C18.4,18.1,18.5,18,18.5,17.9z"/>
		<path d="M52.7,26c0,1.3-1.8,2.1-2.7,1.1C46.4,23,42.8,19,39.2,15c0.1,4.4,0.3,8.9,0.4,13.3c0,0.9-0.7,1.5-1.6,1.6
			c-0.9,0-1.5-0.7-1.6-1.6c-0.2-5.9-0.4-11.7-0.6-17.6c0-1.3,1.8-2.1,2.7-1.1c3.6,4,7.1,8,10.7,12c0-0.2,0-0.5-0.1-0.7
			c-0.1-1.6-0.3-3.3-0.5-4.9c-0.1-0.8-0.2-1.6-0.3-2.4c0,0,0,0,0,0v0l0-0.1c0-0.1,0-0.2,0-0.3c0-0.2-0.1-0.4-0.1-0.6
			c-0.1-0.4-0.1-0.8-0.2-1.2c-0.5-3.1-1-6.2-1.5-9.3c-0.1-0.9,0.2-1.6,1.1-1.9c0.8-0.2,1.8,0.3,1.9,1.1c0.3,1.7,0.6,3.4,0.8,5
			C51.5,12.7,52.6,19.4,52.7,26z"/>
		<path d="M69,4.3c0,0.9-0.8,1.5-1.6,1.6c-0.3,0-0.6,0.1-0.9,0.1c0,0,0,0,0,0c0,0,0,0,0,0c0,0,0,0-0.1,0c-0.1,0-0.2,0-0.4,0
			c-0.5,0.1-1.1,0.2-1.6,0.3c-0.8,0.1-1.5,0.3-2.3,0.5c0,1.2,0.1,2.5,0.1,3.7c0.2,5.6,0.4,11.1,0.6,16.7c0,0.9-0.7,1.5-1.6,1.6
			c-0.9,0-1.5-0.7-1.6-1.6c-0.1-1.6-0.1-3.2-0.2-4.8c-0.2-4.9-0.4-9.9-0.5-14.8c-1.4,0.4-2.8,0.9-4.2,1.4c-0.8,0.3-1.7-0.3-1.9-1.1
			c-0.3-0.8,0.3-1.6,1.1-1.9c4.3-1.6,8.9-2.7,13.5-3.2C68.3,2.6,68.9,3.5,69,4.3z"/>
		<path d="M67.6,9.3c0.1-0.1,0.1-0.2,0.2-0.3C67.7,9.1,67.6,9.2,67.6,9.3z"/>
		<path d="M71,24.6c0-0.1,0-0.2,0-0.2c0,0,0,0,0,0.1C71,24.5,71,24.6,71,24.6z"/>
		<path d="M71.2,25.1C71.3,25.2,71.2,25.2,71.2,25.1C71.2,25.1,71.2,25.1,71.2,25.1C71.1,25.1,71.1,25.1,71.2,25.1
			C71.1,25.1,71.1,25.1,71.2,25.1c-0.1,0-0.3-0.1-0.1,0C71.1,25,71,25,71.2,25.1C71.1,25,71.1,25,71.2,25.1
			C71.1,25,71.1,25,71.2,25.1C71.1,25,71.2,25,71.2,25.1C71.2,25.1,71.2,25.1,71.2,25.1C71.2,25.1,71.2,25.1,71.2,25.1z"/>
		<path d="M71.4,25.1c0,0-0.1,0-0.2,0C71.3,25.1,71.3,25.1,71.4,25.1C71.3,25.1,71.4,25.1,71.4,25.1L71.4,25.1z"/>
		<path d="M83.3,27.2c-2.4,0.5-4.7,0.8-7.1,0.9c-1,0.1-2,0.1-3.1,0.1c-1,0-2.1,0.1-3-0.3c-2.3-0.9-2.2-3.5-2.3-5.5
			c-0.2-4.1-0.3-8.2-0.4-12.3V10c0-0.1,0-0.1,0-0.2c0,0,0-0.1,0-0.2c0,0,0-0.1,0-0.1c0,0,0,0,0-0.1c0-0.1,0.1-0.2,0.1-0.2
			c0.1-0.1,0.1-0.2,0.2-0.3l0.1-0.1l0,0c0.1-0.1,0.2-0.1,0.2-0.2c0.1-0.1,0.3-0.2,0.4-0.2C70.7,7.9,72.8,7.4,75,7
			c2.3-0.4,4.6-0.6,6.9-0.7c0.9-0.1,1.5,0.8,1.6,1.6c0,0.9-0.8,1.5-1.6,1.6c-1.2,0.1-2.4,0.2-3.5,0.3c-0.5,0-1,0.1-1.5,0.2
			c0,0,0,0,0,0c0,0,0,0,0,0c0,0,0,0,0,0c-0.1,0-0.2,0-0.4,0C76.2,10,76,10,75.7,10c-1.8,0.3-3.5,0.7-5.2,1.2c0,1.8,0.1,3.5,0.1,5.3
			c0,0.1,0,0.1,0,0.2c1.4-0.1,2.8-0.2,4.2-0.4c0.1,0,0.2,0,0.3,0c0,0,0,0,0.1,0c0.2,0,0.4-0.1,0.7-0.1c0.4-0.1,0.9-0.1,1.3-0.2
			c1-0.2,1.9-0.4,2.9-0.5c0.9-0.2,1.7,0.2,1.9,1.1c0.3,0.8-0.3,1.7-1.1,1.9c-3.4,0.7-6.7,1.1-10.1,1.4c0,0.8,0.1,1.6,0.1,2.4
			c0,0.5,0.1,1,0.1,1.5c0,0.2,0,0.3,0,0.5c0,0,0,0.1,0,0.1c0,0,0-0.1,0-0.1c0,0,0,0.1,0,0.2c0,0,0-0.1,0-0.1c0,0,0,0,0,0
			c0,0.1,0,0.3,0.1,0.5c0,0,0,0,0,0c0,0,0,0,0,0c-0.1,0-0.1,0,0,0c-0.2,0,0,0,0,0c0,0,0,0,0,0c0,0,0,0,0,0c0,0,0,0,0,0
			c0,0.1,0.1,0.1,0,0c0,0,0,0,0,0c0,0,0,0,0,0c0,0,0.1,0,0.1,0c0,0-0.1,0-0.1,0c0,0,0.1,0,0.2,0c0,0-0.1,0-0.1,0h0.1
			c1.9,0.1,3.8,0,5.6-0.1c0.5,0,1-0.1,1.4-0.1c0.2,0,0.5-0.1,0.7-0.1c0,0,0.1,0,0.1,0h0c0.1,0,0.2,0,0.3,0c1-0.1,1.9-0.3,2.9-0.5
			c0.9-0.2,1.7,0.2,1.9,1.1C84.6,26.1,84.1,27,83.3,27.2L83.3,27.2z"/>
		<path d="M67.4,10c0-0.1,0-0.1,0-0.2C67.4,10,67.4,10,67.4,10L67.4,10z"/>
		<path d="M76.9,9.9C76.9,9.9,76.8,9.9,76.9,9.9C76.8,9.9,76.8,9.9,76.9,9.9C76.8,9.9,76.8,9.9,76.9,9.9C76.8,9.9,76.8,9.9,76.9,9.9
			z"/>
	</g>
</g>
</svg>
