<?xml version="1.0" encoding="UTF-8"?>
<svg id="path" xmlns="http://www.w3.org/2000/svg" viewBox="0 0 752.29 236.85">
  <defs>
    <style>
      .cls-1 {
        stroke-width: 0px;
      }
    </style>
  </defs>
  <polygon class="cls-1" points="699.73 158.86 699.73 79.08 743.62 79.08 743.62 52.45 700.15 52.45 700.15 0 673.09 0 673.09 52.45 651.15 52.45 651.15 79.72 673.09 79.72 673.09 183.98 752.29 183.98 752.29 158.86 699.73 158.86"/>
  <rect class="cls-1" x="149.21" y="105.29" width="73.87" height="26.45"/>
  <path class="cls-1" d="M332.25,63.91s-9.02-10.61-37.58-10.61-33.59,4.46-47.82,18.97c-9.15,9.33-11.93,34.86-11.85,42.82.07,6.45-.43,41.34,17.47,55.4,17.9,14.06,27.7,13.21,45.6,13.21,9.65,0,13.86-.13,17.54-1.64,3.99-1.63,4.1-2.09,10.58-5.61,5.3-2.87,11.58-8.66,11.58-6.43,0,3.91.12,13.1.06,14.38,7.41.02,14.61-.21,22.03-.18V0h-27.51l-.11,63.91ZM297.82,158.28c-33.43,0-35.07-15.91-35.07-37.67,0-16.38-2.52-41.78,34.88-41.78,32.85,0,35.38,17.98,35.49,43.15.13,30.06-12.02,36.3-35.3,36.3Z"/>
  <path class="cls-1" d="M48.81,0L0,183.7h29.98l12.51-51.22,67.2.18,15.37,51.04h28.79L104.82,0h-56.01ZM47.07,107.13l22.05-83.69h16.54l20.3,83.69h-58.88Z"/>
  <path class="cls-1" d="M487.26,157.92v-81.61h-24.29v-23.86h-71.81v26.63h69.68v21.31s-19.2-.11-33.58,0c-14.38.11-49.96,4.1-49.99,41.98-.03,37.87,35.71,41.83,45.99,41.35,0,0,18.96,2.85,39.52-10.22v7.88h2.38l.15,2.34h39.42v-25.79h-17.47ZM429.5,162.34c-14.59-.04-19.98-7.07-22.93-12.12-1.55-2.66-2.13-5.77-1.68-8.81,2.49-16.85,17.9-19.02,17.9-19.02h37.87l-.22,25.41c-1.07,1.65-10.13,14.6-30.94,14.54Z"/>
  <path class="cls-1" d="M587.41,52.45c-16.97,0-29.42,5.09-38.67,12.51v-12.51h-26.21v184.4h26.21v-63.28c9.25,6.18,21.75,10.42,38.67,10.41,30.68-.03,60.51-9.65,60.51-66.75,0,0,4.37-64.77-60.51-64.77ZM585.25,158.56c-20.7,2.38-30.73-9.7-36.52-18.32v-42.83c8.55-12.72,6.96-19.4,33.59-19.39,13.17,0,36.21-1.44,36.22,39.68,0,41.76-15.28,38.79-33.29,40.86Z"/>
</svg>