<?xml version="1.0" encoding="UTF-8"?>
<svg id="Capa_1" data-name="Capa 1" xmlns="http://www.w3.org/2000/svg" viewBox="0 0 800.01 663.75">
  <defs>
    <style>
      .cls-1 {
        letter-spacing: 0em;
      }

      .cls-2 {
        letter-spacing: 0em;
      }

      .cls-3 {
        font-family: Montserrat-BoldItalic, Montserrat;
        font-size: 150px;
        font-style: italic;
        font-weight: 700;
      }

      .cls-4 {
        fill: #14662d;
        stroke-width: 0px;
      }
    </style>
  </defs>
  <g>
    <path class="cls-4" d="M799.3,347.13c-.51-.42-1.24-.55-1.81-.36-.7.21-1.34.4-1.94.58l-.29.09c-1.49.44-2.77.81-4.05,1.32-20.12,7.99-35.95,21.69-48.42,41.86-3.08,4.98-5.46,10.17-7.36,15.33,3.11-17.38,3.84-24.15,4.39-43.6.03-.82.03-1.65.03-2.47,0-2.25,0-4.38.49-6.31.59-2.3,1.77-4.59,2.92-6.81.32-.63.65-1.26.91-1.81.09-.11.39-.29.51-.31,5.75-.88,10.84-3.32,15.56-7.47,4.75-4.2,8.66-9.33,11.62-15.27,10.62-21.29,15.93-44.82,15.79-69.93-.01-2.42-.3-4.78-.61-7.35-.14-1.15-.29-2.32-.41-3.54-.07-.67-.48-1.26-1.07-1.55-.59-.28-1.3-.26-1.89.09-.36.22-.67.41-.94.57-.54.32-.95.57-1.34.85-9.06,6.49-17.04,14.57-23.74,24.01-10.93,15.43-17.29,32.88-19,52.07-.17-2.14-.34-4.28-.52-6.42l-.06-.78c-.67-8.39-1.37-17.06-1.93-25.59-.14-2.16-.56-4.26-.96-6.29-.77-3.91-1.51-7.6-.33-11.47.27-.87.49-1.75.72-2.63.55-2.18,3.23-5.53,7.33-9.19l.15-.14c1.51-1.28,9.29-8.4,13.7-22.47,4.48-14.3,4.14-29.24,3.89-40.14v-.29c-.33-14.99-1.96-26.29-5.26-36.64-.43-1.32-.93-2.63-1.47-4-.28-.71-.56-1.45-.86-2.22-.24-.65-.82-1.13-1.49-1.24l-.33-.03c-.59,0-1.13.26-1.5.72l-3.21,3.91c-15.39,18.77-22.95,40.79-22.48,65.44.08,4.34.41,8.79.98,13.39-3.91-13.5-8.5-26.64-13.72-39.29-.11-.28-.18-.62-.19-.91l-.04-1.73c-.05-2.49-.11-5.08,0-7.61.02-.42.29-1.18.86-1.92.81-1.06,1.7-2.11,2.63-3.19,1.58-1.84,3.21-3.73,4.5-5.9,4.16-6.97,6.11-15.2,6.14-25.9.06-12.6-1.89-25.87-6.12-41.74-2.31-8.66-5.81-19.91-12.31-30.11-.44-.69-.93-1.33-1.46-2.02-.24-.3-.49-.63-.74-.97-.37-.5-.88-.78-1.7-.78-.66.05-1.24.42-1.57,1-8.17,14.74-12.23,30.48-12.42,48.13-.16,14.72,2.13,27.38,5.02,37.39-7.33-13.4-15.48-26.34-24.32-38.62l-.2-.28c-.2-.27-.28-.4-.27-.3-.56-3.97-.94-7.15-1.21-9.92,0-.04.06-.27.47-.96.58-.99,1.22-1.97,1.9-3,1.36-2.07,2.77-4.22,3.67-6.62,2.72-7.25,3.33-15.47,1.86-25.13-3.23-21.37-12.65-40.62-28.8-58.84-1.66-1.87-3.5-3.53-5.44-5.27l-.54-.49c-.76-.69-1.54-1.39-2.33-2.14-.5-.48-1.22-.66-1.91-.45-.66.21-1.17.75-1.32,1.43l-.35,1.55c-.24,1.03-.43,1.84-.57,2.65-2.17,12.97-2.02,26.87.49,42.49,2.48,15.49,7.43,28.85,15.02,40.45-11.38-13.41-22.45-24.67-34.02-34.65-.05-.07-.13-.27-.13-.33.9-7.79-1.02-15.13-5.88-22.44-6.38-9.6-15.25-16.92-26.36-21.75-6.65-2.88-13.54-5.44-20.28-7.94-3.23-1.2-6.46-2.39-9.79-3.68-3.34-1.33-4.77-1.57-5.55-.85-1,.93-.76,1.72-.32,3.17l.14.47c4.08,13.73,9.49,24.59,16.54,33.2,12.95,15.82,28.1,23.86,46.29,24.57.64.04,1.14.21,1.35.37,2.56,1.92,4.45,3.45,6.11,4.97,5.27,4.82,10.46,9.95,15.54,15.35-7.55-4.69-16.78-6.81-27.18-6.28-5.69.29-11.34,1.12-16.8,1.93l-.21.03c-1.61.24-3.22.47-4.82.7-3.51.48-7.05,1.1-10.17,1.64-1.27.23-4.29.91-4.98,2.38-.24.5-.22,1.05.05,1.55.24.44.51.84.79,1.22,9.02,11.7,19.3,19.41,31.45,23.56,14.81,5.09,28.41,4.67,40.63-1.32,1.87-1.03,4.12-1.55,6.7-1.55,1.94,0,3.4.31,3.88.42.72.12,1.71.53,1.91.79,7.6,9.99,14.81,20.66,21.55,31.87-5.69-5.53-13.11-9.27-23.22-11.7-8.86-2.11-17.92-2.56-26.68-3.01l-2.93-.15c-2.75-.14-5.49-.31-8.32-.49l-4.74-.29c-.61,0-1.2.3-1.55.79-.4.53-.49,1.22-.26,1.84.19.52.54,1.43.72,1.73,9.24,15.45,20.09,26.14,33.16,32.68,12.78,6.38,24.33,8.07,35.98,5.29,1.35-.32,2.91-.5,4.52-.5,4.95,0,8.41,1.51,9.14,2.91,6.41,13.22,12.13,26.96,17.06,40.97-5.17-7.13-12.41-12.93-21.57-17.26-9.1-4.3-18.57-8.22-27.9-12.09-4.01-1.66-8.03-3.32-12.03-5.02-.6-.26-1.3-.21-1.85.16-.55.36-.87.97-.87,1.62,0,1.25,13.29,38.15,32.6,52.69,7.88,5.93,17.58,12.03,29.81,12.32,3.66.07,7.45.59,10.31,3.84.44.52,1.02.92,1.65,1.13.98.32,1.25.92,1.73,2.96,3.96,16.64,6.85,33.78,8.62,51.19-.54-1.77-1.16-3.55-1.88-5.36-4.32-10.96-11.59-20.55-22.89-30.18-5.82-4.98-11.92-9.81-17.81-14.48l-.28-.22c-2.68-2.13-5.36-4.25-8.03-6.39-.55-.44-1.09-.9-1.71-1.43l-1.67-1.43c-.58-.49-1.45-.6-2.13-.25-.7.35-1.12,1.09-1.06,1.87.08,1.18.15,2.29.21,3.36l.03.5c.13,2.2.26,4.28.48,6.32,2.09,19.95,8.02,36.61,18.14,50.93,6.26,8.85,15.25,19.66,29.25,24.78,3.41,1.25,5.88,3.15,8.53,6.55,2.5,3.18,2.96,6.09,2.91,9.76-.24,15.34-1.33,30.55-3.26,45.45-.45-4.15-1.41-8.42-2.87-12.85-3.03-9.18-7.76-18.11-14.46-27.3-5.78-7.95-11.79-15.93-17.61-23.66l-.39-.52c-2.31-3.06-4.61-6.12-6.85-9.12-.42-.62-1.03-.84-1.38-.96-.5-.24-1.09-.27-1.62-.04-.52.22-.91.66-1.09,1.19l-.07.21c-.1.28-.17.53-.21.78-4.01,23.91-1.55,45.34,7.52,65.51,4.43,9.86,10.37,21.03,20.85,29.06,4.78,3.67,8.56,8.81,10.63,14.49.44,1.22.42,1.75.37,1.96-4.43,18.36-10.22,36.08-17.26,52.84,1.81-8.83,1.69-18.11-.38-27.73-2.94-13.63-7.99-26.83-12.49-38.14l-1.35-3.39c-2.11-5.3-4.24-10.64-6.43-16.18-.28-.71-.95-1.19-1.85-1.24-.71,0-1.36.4-1.69,1.06l-.71,1.33c-.31.58-.6,1.13-.85,1.69-9.06,20.44-12.12,41.4-9.09,62.28,2.17,14.93,5.84,25.63,11.9,34.68,3.14,4.68,6.12,9.89,6.66,16.29.13,1.52.07,2.56-.61,3.75-7.65,13.39-16.22,26.03-25.61,37.77.04-.06.07-.13.11-.19,6.76-12.35,6.96-25.69,6.27-37.13-.6-9.8-1.72-19.58-2.8-29.05l-.06-.55c-.44-3.79-.87-7.58-1.26-11.37-.23-2.15-.48-4.3-.75-6.49l-.35-2.96c-.08-.65-.48-1.22-1.05-1.5-1.07-.56-2.79.3-4.66,2.51-12.82,15.16-20.77,32.29-23.64,50.91-2.98,19.31-1.36,35.84,4.94,50.52.17.39.16,1.19.16,1.46l-.34,8.45c-.05.61-.37,1.29-.64,1.55-12.8,12.32-26.89,23.04-42,31.95,7.16-6.47,12.3-14.91,15.64-25.6,3.7-11.85,5.59-24.19,7.43-36.16l.16-1.06c.65-4.2,1.33-8.4,2.03-12.68l.78-4.85c.11-.71-.17-1.41-.71-1.83-.54-.43-1.33-.54-1.96-.27l-.68.28c-.73.3-1.37.57-1.97.87-28.58,14.27-47.4,47.57-44.74,79.16.42,4.95-.04,9.6-1.39,14.2-.13.42-.53.87-.7.95-13.58,5.72-26.48,9.9-39.47,12.77-.67.15-1.2.63-1.41,1.28-.22.65-.09,1.35.36,1.88,1.41,1.67,2.64,3.47,3.65,5.35.42.77,1.4,1.17,2.14.97,10.58-2.41,20.89-5.54,30.64-9.3.79-.32,1.39-.47,1.95-.37,2.17.29,4.46.73,7.01,1.37.53.13.96.37.97.35,5.56,11.08,15.11,18.14,29.21,21.57,3.07.74,6.23,1.28,9.4,1.61,3.32.35,7.02.53,11,.53,5.51,0,9.45-.34,9.49-.34,12.22-1.37,22.66-4.12,31.91-8.41,3.79-1.76,8.12-4.13,11.44-8.36.64-.81.53-1.98-.24-2.66-9.39-8.29-18.96-14.31-29.24-18.41-15.24-6.06-29.12-7.7-42.72-5.08-2.03.4-4.02.89-5.95,1.46,12.73-7.61,24.91-16.55,36.42-26.74.22-.2.58-.38.87-.43,1.88-.31,4.38-.7,6.94-.88.24,0,.54.11.57.13,6.93,7.76,15.87,11.53,27.31,11.53.58,0,1.17-.01,1.75-.03,12.44-.4,24.95-3.82,37.18-10.17,8.89-4.64,18.16-10.04,25.67-18.09,1.67-1.79,3.15-3.82,4.47-5.6l.13-.17c.58-.79,1.17-1.58,1.77-2.37.33-.42.47-.97.38-1.52-.09-.53-.4-1-.92-1.34-.13-.07-3.31-1.78-6.22-2.9-19.45-7.52-39.1-8.29-57.83-2.25-6.13,1.97-11.91,4.93-17.53,9.02,10.39-12.08,20.02-25.33,28.76-39.58.09-.15.34-.56.42-.63.76-.49,1.55-.95,2.33-1.4,1.4-.82,2.85-1.67,4.2-2.68,1.15-.86,1.47-.88,2.63-.13,1.64,1.06,3.55,1.62,5.21,2.05,9.73,2.49,19.53,1.25,30.37-3.84,9.91-4.64,17.52-11.99,24.28-19.22,9.83-10.56,16.25-20.09,20.21-29.98.83-2.08,1.43-4.22,2.04-6.47.25-.94.52-1.88.79-2.81.3-.99-.23-2.05-1.21-2.39l-.81-.06c-4.01,0-39.77.59-60.68,20.88-4.55,4.42-8.63,9.11-12.35,14.24,8.27-17.52,15.29-35.99,20.94-55.15l.08-.28c.07-.23.17-.59.24-.69l5.47-7.51c.2-.3.23-.3.55-.3.14,0,.3.01.48.02l1.17.07c4.07.25,6.47.22,8.44-.09,7.79-1.23,14.82-5.15,21.49-11.99,15.6-16,26.34-35.97,32.83-61.03.7-2.68.89-5.4,1.1-8.27.09-1.3.19-2.65.34-4.03.06-.67-.2-1.3-.7-1.72Z"/>
    <path class="cls-4" d="M269.92,638.49c-12.98-2.87-25.88-7.04-39.46-12.77-.16-.08-.57-.53-.69-.94-1.35-4.61-1.81-9.26-1.39-14.21,2.66-31.6-16.16-64.89-44.73-79.16-.61-.31-1.24-.58-1.97-.87l-.68-.28c-.64-.27-1.43-.16-1.95.26-.56.43-.84,1.14-.73,1.85l.78,4.84c.69,4.29,1.37,8.48,2.03,12.68l.16,1.1c1.83,11.93,3.73,24.27,7.43,36.13,3.33,10.7,8.48,19.14,15.64,25.6-15.12-8.92-29.21-19.63-42-31.95-.27-.26-.59-.94-.63-1.51l-.34-8.46c0-.3,0-1.1.16-1.49,6.3-14.68,7.92-31.21,4.94-50.52-2.87-18.63-10.82-35.75-23.64-50.91-1.5-1.77-2.82-2.67-3.93-2.67-.27,0-.52.05-.71.15-.59.29-.99.86-1.07,1.52l-.34,2.95c-.26,2.19-.52,4.34-.75,6.49-.4,3.79-.83,7.58-1.26,11.37l-.06.55c-1.08,9.46-2.21,19.25-2.8,29.05-.69,11.43-.49,24.78,6.27,37.13.04.06.07.13.1.19-9.39-11.74-17.96-24.38-25.61-37.77-.68-1.19-.73-2.24-.61-3.75.54-6.41,3.52-11.62,6.66-16.29,6.06-9.05,9.73-19.74,11.9-34.68,3.03-20.89-.03-41.84-9.09-62.28-.25-.56-.54-1.11-.85-1.69l-.71-1.34c-.34-.65-1.06-1.08-1.83-1.05-.76.04-1.43.52-1.71,1.23-2.2,5.54-4.32,10.88-6.43,16.18l-1.35,3.39c-4.5,11.31-9.55,24.52-12.49,38.14-2.07,9.61-2.2,18.89-.38,27.73-7.04-16.76-12.83-34.47-17.26-52.84-.05-.2-.07-.73.37-1.96,2.07-5.67,5.85-10.82,10.63-14.49,10.47-8.03,16.41-19.2,20.84-29.06,9.07-20.17,11.53-41.59,7.52-65.51-.04-.25-.12-.5-.21-.77l-.07-.22c-.17-.54-.57-.97-1.1-1.2-.51-.21-1.16-.17-1.56.02-.4.15-1.01.37-1.4.95-2.27,3.03-4.57,6.09-6.88,9.15l-.39.52c-5.82,7.72-11.83,15.7-17.61,23.65-6.7,9.19-11.42,18.11-14.46,27.3-1.46,4.44-2.42,8.7-2.87,12.85-1.93-14.9-3.02-30.11-3.26-45.45-.06-3.66.41-6.57,2.91-9.76,2.65-3.4,5.12-5.29,8.53-6.54,14.01-5.12,22.99-15.93,29.25-24.78,10.12-14.32,16.05-30.97,18.14-50.92.22-2.05.35-4.13.48-6.33l.03-.5c.06-1.07.13-2.18.21-3.36.05-.78-.37-1.52-1.07-1.87-.68-.34-1.55-.24-2.14.26l-1.66,1.42c-.63.53-1.16.99-1.72,1.44-2.67,2.14-5.35,4.27-8.03,6.39l-.28.22c-5.89,4.67-11.99,9.49-17.81,14.48-11.3,9.63-18.57,19.22-22.89,30.18-.71,1.81-1.34,3.59-1.88,5.36,1.78-17.41,4.66-34.56,8.62-51.2.48-2.04.75-2.63,1.74-2.96.62-.21,1.2-.62,1.62-1.12,2.87-3.27,6.66-3.78,10.32-3.86,12.23-.29,21.93-6.39,29.81-12.32,19.31-14.54,32.6-51.44,32.6-52.69,0-.65-.32-1.26-.88-1.63-.54-.36-1.28-.41-1.83-.16-4.02,1.71-8.04,3.37-12.21,5.09-9.16,3.8-18.64,7.73-27.74,12.02-9.16,4.33-16.39,10.13-21.57,17.26,4.93-14.01,10.65-27.75,17.05-40.95.74-1.42,4.19-2.94,9.15-2.94,1.61,0,3.17.17,4.52.5,11.65,2.79,23.19,1.1,35.98-5.29,13.08-6.54,23.92-17.22,33.16-32.68.18-.3.52-1.21.71-1.72.23-.63.14-1.32-.25-1.84-.36-.5-.94-.79-1.67-.79h-.02l-4.62.29c-2.83.18-5.58.35-8.32.49l-2.93.15c-8.76.44-17.82.89-26.68,3.01-10.11,2.43-17.53,6.16-23.22,11.7,6.74-11.21,13.95-21.88,21.55-31.87.2-.26,1.19-.67,1.99-.8.4-.09,1.86-.4,3.8-.4,2.57,0,4.83.52,6.74,1.57,12.14,5.94,25.78,6.38,40.58,1.29,12.14-4.15,22.43-11.85,31.44-23.55.29-.38.56-.79.8-1.22.27-.5.29-1.05.05-1.55-.7-1.46-3.72-2.15-4.99-2.38-3.12-.55-6.66-1.17-10.16-1.64-1.61-.22-3.21-.46-4.83-.7l-.21-.03c-5.46-.81-11.11-1.64-16.8-1.93-10.39-.53-19.62,1.59-27.18,6.29,5.08-5.41,10.27-10.54,15.54-15.35,1.67-1.52,3.55-3.05,6.12-4.97.2-.15.7-.33,1.32-.37,18.21-.71,33.35-8.75,46.31-24.57,7.06-8.61,12.47-19.47,16.54-33.2l.14-.47c.44-1.44.68-2.24-.32-3.17-.77-.72-2.13-.51-5.66.89-3.21,1.23-6.44,2.43-9.75,3.66-6.66,2.47-13.55,5.02-20.19,7.9-11.11,4.83-19.98,12.15-26.36,21.75-4.86,7.31-6.78,14.65-5.88,22.4,0,.09-.08.29-.09.32-11.6,10.01-22.68,21.28-34.06,34.7,7.59-11.6,12.54-24.96,15.02-40.45,2.5-15.61,2.66-29.51.49-42.49-.14-.81-.32-1.62-.56-2.64l-.35-1.57c-.16-.67-.67-1.22-1.33-1.42-.66-.2-1.41-.02-1.9.45-.79.75-1.57,1.45-2.33,2.14l-.54.48c-1.95,1.75-3.78,3.41-5.44,5.28-16.15,18.22-25.57,37.47-28.8,58.84-1.47,9.66-.86,17.88,1.86,25.13.9,2.4,2.31,4.55,3.71,6.68.64.97,1.28,1.95,1.87,2.95.43.72.47.91.47.87-.27,2.86-.65,6.04-1.17,9.86-.02.05-.09.16-.32.47l-.19.26c-8.83,12.28-16.98,25.22-24.32,38.62,2.88-10.01,5.18-22.67,5.02-37.39-.2-17.65-4.26-33.39-12.43-48.13-.32-.57-.91-.95-1.73-1-.6,0-1.17.29-1.54.8-.24.34-.49.66-.73.97-.53.68-1.02,1.33-1.46,2.02-6.5,10.2-9.99,21.45-12.31,30.11-4.23,15.88-6.18,29.15-6.12,41.74.03,10.71,1.98,18.94,6.14,25.9,1.29,2.17,2.92,4.06,4.56,5.97.87,1.01,1.76,2.05,2.57,3.12.57.74.84,1.5.85,1.92.11,2.54.05,5.12,0,7.61l-.04,1.72c0,.3-.07.64-.18.9-5.22,12.65-9.81,25.8-13.73,39.3.58-4.6.9-9.05.98-13.39.47-24.65-7.09-46.67-22.48-65.44l-3.21-3.91c-.37-.46-.92-.72-1.51-.72l-.32.03c-.69.11-1.26.59-1.5,1.24-.29.78-.58,1.52-.86,2.23-.54,1.38-1.04,2.68-1.47,4-3.3,10.34-4.92,21.65-5.25,36.64v.29c-.25,10.91-.59,25.85,3.89,40.14,4.41,14.07,12.19,21.19,13.69,22.46l.16.14c4.1,3.66,6.78,7.01,7.33,9.19.22.88.45,1.76.71,2.63,1.17,3.87.44,7.56-.35,11.55-.39,2.01-.8,4.09-.94,6.22-.57,8.53-1.26,17.2-1.93,25.59l-.06.78c-.17,2.14-.34,4.28-.52,6.42-1.71-19.19-8.07-36.64-19.01-52.07-6.7-9.44-14.68-17.52-23.74-24.01-.39-.28-.8-.53-1.35-.86-.27-.15-.58-.34-.95-.57-.57-.34-1.29-.37-1.87-.08-.6.29-1.01.88-1.08,1.55-.12,1.21-.26,2.39-.42,3.61-.3,2.5-.59,4.85-.6,7.28-.13,25.11,5.18,48.64,15.79,69.93,2.96,5.94,6.87,11.08,11.62,15.28,4.71,4.14,9.8,6.58,15.54,7.46.13.02.43.2.47.24.31.62.63,1.25.96,1.88,1.15,2.22,2.33,4.51,2.92,6.81.49,1.94.49,4.07.49,6.32,0,.82,0,1.65.03,2.47.55,19.45,1.28,26.22,4.39,43.6-1.9-5.17-4.28-10.35-7.36-15.33-12.46-20.17-28.3-33.87-48.41-41.86-1.28-.52-2.56-.89-4.05-1.32l-.3-.09c-.6-.18-1.24-.36-1.93-.57-.62-.2-1.32-.06-1.82.35-.5.42-.76,1.05-.7,1.71.15,1.38.25,2.72.34,4.03.21,2.87.4,5.58,1.1,8.27,6.49,25.06,17.23,45.02,32.83,61.03,6.67,6.84,13.7,10.76,21.49,11.99,1.97.31,4.37.34,8.43.09l1.17-.07c.18-.01.33-.02.48-.02.32,0,.35,0,.57.33l5.45,7.48c.07.1.17.45.24.7l.08.27c5.65,19.17,12.67,37.63,20.94,55.16-3.72-5.14-7.8-9.83-12.35-14.24-20.91-20.29-56.67-20.88-60.68-20.88h-.5s-.31.06-.31.06c-.98.35-1.51,1.4-1.21,2.39.28.93.54,1.87.84,2.98.57,2.08,1.17,4.23,2,6.3,3.96,9.9,10.38,19.43,20.22,29.99,6.76,7.24,14.37,14.58,24.27,19.22,10.85,5.09,20.64,6.34,30.38,3.84,1.66-.44,3.56-.99,5.2-2.05,1.17-.75,1.49-.72,2.63.13,1.36,1.01,2.81,1.86,4.21,2.68.78.46,1.56.91,2.29,1.38.12.1.36.51.46.66,8.74,14.25,18.37,27.5,28.76,39.58-5.62-4.09-11.4-7.05-17.53-9.02-18.74-6.04-38.38-5.27-57.83,2.25-2.9,1.12-6.09,2.83-6.3,2.95-.45.29-.75.77-.85,1.31-.08.53.05,1.08.38,1.5.61.79,1.2,1.58,1.78,2.37l.13.17c1.31,1.79,2.8,3.81,4.47,5.6,7.51,8.05,16.78,13.45,25.67,18.09,12.23,6.35,24.74,9.77,37.18,10.17.59.02,1.17.03,1.75.03,11.44,0,20.38-3.77,27.26-11.49.08-.06.38-.17.55-.18,2.63.19,5.13.57,7,.88.29.05.66.23.88.43,11.5,10.18,23.69,19.12,36.41,26.73-1.93-.57-3.92-1.07-5.95-1.47-13.6-2.61-27.48-.97-42.72,5.08-10.28,4.1-19.85,10.12-29.24,18.41-.77.68-.88,1.85-.24,2.66,3.32,4.23,7.65,6.6,11.44,8.35,9.25,4.3,19.69,7.05,31.92,8.42.04,0,3.97.34,9.48.34,3.98,0,7.68-.18,11-.53,3.17-.33,6.34-.88,9.41-1.61,14.1-3.43,23.66-10.49,29.13-21.45.1-.09.52-.34,1.05-.47,2.54-.63,4.83-1.08,7.01-1.37.51-.08,1.15.06,1.96.38,9.74,3.75,20.04,6.88,30.61,9.29.15.04.3.05.46.05.71,0,1.36-.39,1.71-1.03,1.01-1.88,2.24-3.68,3.65-5.35.44-.53.58-1.23.36-1.88-.21-.63-.74-1.11-1.42-1.27Z"/>
  </g>
  <text class="cls-3" transform="translate(217.01 297.52)"><tspan class="cls-2" x="0" y="0">2</tspan><tspan class="cls-1" x="88.2" y="0">0</tspan><tspan x="189" y="0">22</tspan><tspan class="cls-2" x="-.15" y="180">2</tspan><tspan class="cls-1" x="88.05" y="180">0</tspan><tspan x="188.85" y="180">23</tspan></text>
</svg>