<?xml version="1.0" encoding="UTF-8"?>
<svg id="Layer_1" data-name="Layer 1" xmlns="http://www.w3.org/2000/svg" viewBox="0 0 1920.18 749.13">
  <defs>
    <style>
      .cls-1 {
        letter-spacing: .05em;
      }

      .cls-2 {
        letter-spacing: .05em;
      }

      .cls-3 {
        fill: none;
      }

      .cls-3, .cls-4 {
        stroke-width: 0px;
      }

      .cls-5 {
        letter-spacing: 0em;
      }

      .cls-6 {
        letter-spacing: 0em;
      }

      .cls-7 {
        letter-spacing: .03em;
      }

      .cls-8 {
        font-family: Montserrat-Bold, Montserrat;
        font-size: 260px;
        font-weight: 700;
      }

      .cls-9 {
        letter-spacing: .04em;
      }

      .cls-10 {
        font-family: Montserrat-Regular, Montserrat;
        font-size: 230px;
      }
    </style>
  </defs>
  <g>
    <text class="cls-8" transform="translate(712.95 343.55)"><tspan class="cls-5" x="0" y="0">C</tspan><tspan class="cls-6" x="188.24" y="0">ODING</tspan></text>
    <text class="cls-10" transform="translate(691.93 571.9)"><tspan class="cls-1" x="0" y="0">D</tspan><tspan class="cls-9" x="201.25" y="0">I</tspan><tspan class="cls-7" x="280.14" y="0">V</tspan><tspan class="cls-2" x="448.5" y="0">ISION</tspan></text>
  </g>
  <g id="Layer_2" data-name="Layer 2">
    <g id="invisible_box" data-name="invisible box">
      <rect class="cls-3" width="749.13" height="749.13"/>
    </g>
    <g id="icons_Q2" data-name="icons Q2">
      <g>
        <path class="cls-4" d="M639.89,93.64H109.25c-17.24,0-31.21,13.97-31.21,31.21v374.57c0,17.24,13.97,31.21,31.21,31.21h530.64c17.24,0,31.21-13.97,31.21-31.21V124.86c0-17.24-13.97-31.21-31.21-31.21ZM333.99,383.93c12.26,10.85,13.4,29.6,2.55,41.86-1.67,1.89-3.58,3.56-5.67,4.96-13.11,9.68-31.47,7.64-42.14-4.68l-92.08-92.08c-12.07-11.07-12.87-29.83-1.8-41.9.57-.63,1.18-1.23,1.8-1.8l92.08-93.64c11.53-10.58,28.57-12.47,42.14-4.68,14.06,9.98,17.37,29.46,7.39,43.52-1.25,1.76-2.68,3.39-4.27,4.86l-71.79,71.79,71.79,71.79ZM552.49,333.99l-92.08,92.08c-10.67,12.32-29.02,14.36-42.14,4.68-13.6-9.13-17.21-27.55-8.08-41.15,1.41-2.09,3.07-4,4.96-5.67l71.79-71.79-71.79-71.79c-12.66-11.7-13.44-31.45-1.74-44.11,1.47-1.59,3.1-3.02,4.86-4.27,13.57-7.79,30.61-5.89,42.14,4.68l92.08,93.64c12.07,11.07,12.87,29.83,1.8,41.9-.57.63-1.18,1.23-1.8,1.8Z"/>
        <path class="cls-4" d="M686.71,593.06H62.43c-17.24,0-31.21,13.97-31.21,31.21s13.97,31.21,31.21,31.21h624.28c17.24,0,31.21-13.97,31.21-31.21s-13.97-31.21-31.21-31.21Z"/>
      </g>
    </g>
  </g>
</svg>