<?xml version="1.0" encoding="UTF-8"?>
<svg id="path" xmlns="http://www.w3.org/2000/svg" viewBox="0 0 2059 672">
  <defs>
    <style>
      .cls-1 {
        fill: #1d202b;
      }

      .cls-1, .cls-2 {
        stroke-width: 0px;
      }

      .cls-2 {
        fill: #ef9937;
      }
    </style>
  </defs>
  <path class="cls-1" d="M241.75,294.73c12.62,19.38,25.45,78.15,61.23,78.15s62.46-78.15,62.46-78.15c0,0-.21,97.38-.21,110.33,0,8.46,7.9,22.9,26.05,22.59s23.26-16.7,23.38-21.54,0-180.3,0-180.3c0,0-2.46-23.38-27.08-23.38-18.17,0-28.61,16.92-28.61,16.92l-55.08,91.08s-50-82.3-57.31-94.19c-.46-.74-7.93-15.96-27.61-13.81-24.92,1.3-24.92,23.38-24.92,23.38v180.3c0,11.92,11.04,20.88,22.01,20.88s26.43-7.05,26.43-22.32c0-18.71-.75-109.94-.75-109.94Z"/>
  <path class="cls-2" d="M606.28,294.76c-10.46-11.38-51.69-40.61-84.92-52-33.23-11.38-45.85,2.46-49.23,7.08-3.38,4.62-8,18.15-11.38,30.77-3.38,12.62-6.77,36.92-6.77,36.92-6.15,63.69,4.62,92.92,7.08,99.08,2.46,6.15,7.69,10.46,14.46,15.08s57.18-1.29,66.48-4.14c23.74-7.26,40.18-19.87,51.36-27.86,21.82-15.59,46.77-39.08,48.61-56,1.85-16.92-25.23-37.54-35.69-48.92ZM533.59,394c-29.53,0-53.47-23.94-53.47-53.47s23.94-53.47,53.47-53.47,53.47,23.94,53.47,53.47-23.94,53.47-53.47,53.47Z"/>
  <circle class="cls-1" cx="544.66" cy="322.6" r="13.15"/>
  <path class="cls-1" d="M670.09,275.59c0-14.7,15.45-20.35,24.5-20.35,0,0,23.7-2.64,24.46,28.27,0,0,7.92-18.48,16.21-23.92s11.72-5.92,17.73-5.9c4.8-.3,10.49,2.1,14.99,6.43,3.63,3.49,6.09,8.85,6.9,11.71s.65,7.61-.57,12.36c-.98,3.83-3.02,6.27-4.75,8.63-3.8,5.2-11.32,8.12-14.77,8.94s-12.23,2.14-18.59,9.03c-9.69,10.5-12.63,13.25-14.96,24.26-2.33,11.01-1.95,63.92-2.33,71.75,0,5.12-6.48,20.36-22.67,20.75s-25.37-11.53-26.16-19.56,0-132.38,0-132.38Z"/>
  <path class="cls-1" d="M974.47,304.53c-2.02-8.29-24.43-53.11-73.06-52.22-48.63.9-51.1,39.89-51.32,25.32s-12.77-22.41-23.98-22.86c-11.21-.45-24.65,9.64-24.43,19.5,0,0-1.34,175.7,0,182.2,1.34,6.5,5.83,22.19,24.88,21.51,19.05-.67,23.98-18.6,23.76-20.62s-.67-54.01-.67-54.01c8.52,10.98,22.19,17.26,32.94,21.51,10.76,4.26,22.63,5.13,40.79,2.66,18.15-2.47,26.37-11.5,34.95-22.03,7.07-8.69,12.04-17.63,16.37-31.95,4.34-14.32,4.87-29.8,4.93-31.6.45-14.34-3.14-29.13-5.15-37.43ZM890.21,388.54c-23.27,0-42.13-21.46-42.13-47.94s18.86-47.94,42.13-47.94,42.13,21.46,42.13,47.94-18.86,47.94-42.13,47.94Z"/>
  <path class="cls-1" d="M1014.44,405.98v-191.5s2.98-20.18,22.82-20.51,24.81,19.51,24.81,19.51v66.15s16.21-27.87,52.59-27.33,48.95,31.96,50.6,36.26c1.65,4.3,3.64,17.53,3.64,17.53v99.89s-2.65,20.97-23.81,21.56-25.8-23.55-25.8-23.55l-1.98-87.65s-2.11-20.75-27.78-20.18c-9.03.2-19.07,4.79-24.99,24.6-4.25,14.22-2.12,86.29-2.12,86.29,0,0-2.99,20.55-24.48,20.49s-23.48-21.56-23.48-21.56Z"/>
  <path class="cls-1" d="M1390.79,246.11c-3.98-3.43-27.73-30.69-69.52-29.21-41.78,1.48-61.58,20.78-76.93,44.53-18.14,25.22-16.99,66.41-12.93,82.31s24.04,52.51,49.18,62.86c25.14,10.35,62.12,11.83,82.09,0,19.97-11.83,30.32-22.19,30.32-22.19,0,0,5.62-5.38,11.8-1.53,6.14,3.83,1.19,11.06-.22,12.53-1.2,1.26-20.75,17.37-30.12,21.96-12.31,6.03-24.29,10.89-38.47,12.24-8.56.81-1.93.6-21.3.6s-57.42-12.63-72.56-32.67c-7.56-10.01-15.32-18.25-19.44-27.03-7.11-15.14-10.73-26.67-11.46-43.31-1.17-26.62,5.64-66.84,29.34-90.75,23.71-23.9,50.13-32.64,74.42-34.01,24.29-1.36,47.22,5.05,64.51,12.63s22.64,15.93,24.68,20.4.83,8.55-2.04,11.12-7.38,2.93-11.37-.5Z"/>
  <path class="cls-1" d="M1575.09,317.27s-1.91-17.91-8.51-29.13c-6.76-11.49-15.16-17.57-24.59-21.29-9.43-3.71-21.19-6.65-40.98-5.1s-17.17,2.63-29.07,5.26c-11.91,2.63-16.86,5.72-16.86,5.72,0,0-8.2,6.03-4.64,11.44,3.56,5.41,9.28,3.71,9.28,3.71,0,0,12.6-6.53,29.54-9.42,16.93-2.89,28.98-1.15,28.98-1.15,7.12.83,13.58,2.34,21.06,7.19,6.6,4.27,10.4,7.88,13.8,12.69,3.55,5.02,5.54,18.28,5.9,28.11.36,9.84.16,5.17.16,5.17,0,0-14.59-2.82-24.89-3.92-10.3-1.11-21.66-2.48-29.86-2.17-8.2.31-13.59,1.41-25.65,3.61-12.32,2.25-26.47,13.56-27.39,14.64-.93,1.08-14.69,12.68-14.69,32.78s8.04,35.88,24.74,44.69c16.7,8.81,23.51,8.2,38.51,8.2s21.65-.62,35.88-8.04c14.23-7.42,24.36-22.27,24.36-22.27l-.23,20.41s0,7.11,7.89,6.8c7.89-.31,7.89-6.5,7.89-6.5l-.62-101.45ZM1560.07,370.59s-2.1,12.83-10.3,22.92c-8.2,10.09-18.5,13.46-25.02,15.77-6.52,2.31-10.93,5.05-23.76,5.47,0,0-17.66.21-30.28-7.57-12.62-7.78-17.87-18.5-17.87-28.6s1.89-19.55,14.51-29.23c12.62-9.67,39.11-10.3,39.11-10.3,0,0,19.34.42,30.49,2.31,11.14,1.89,23.13,4.84,23.13,4.84v24.39Z"/>
  <path class="cls-1" d="M1720.74,288.53s6.3,2.02,9.84-1.52c3.53-3.53,2.07-10.66-2.76-13.45s-19-10.39-32.39-12.23-33.66-1.47-43.89,3.74c0,0-11.79,2.54-20.27,15.44-8.5,12.94-7.88,17.35-6.27,33.82,3.05,15.01,30.63,28.04,37.88,30.49,7.25,2.45,33.29,9.33,37.75,11.38s15.62,5.77,18.97,14.32c3.35,8.55.14,22.36-2.05,26.41-2.25,4.16-9.67,9.67-15.81,12.09-6.14,2.42-13.95,3.91-24.73,3.16s-20.09-2.79-26.22-5.95c-6.14-3.16-16.99-10.29-20.83-12.09-2.98-1.39-9.42-1.68-11.53,1.3-1.97,2.79-2.05,5.77,0,8.37,2.05,2.6,12.37,9.57,19.9,13.2,7.65,3.69,14.69,7.81,31.99,8.93s21.76,1.49,30.31-1.12,26.04-10.6,31.24-21.02c5.21-10.41,7.07-18.12,6.32-26.91-.74-8.79-4.84-19.96-13.58-26.65-8.74-6.69-19.34-9.86-42.03-15.62-22.69-5.77-36.03-14.41-41.1-24.73-5.21-10.6,2.2-25.44,13.79-30.76,15.32-4.88,17.46-4.2,24.65-4.39,11.46,1.17,21.29,3.87,25.94,6.41s14.87,7.38,14.87,7.38Z"/>
  <path class="cls-1" d="M1790.79,215.72s1.92-6.28,9.24-6.1,7.15,6.1,7.15,6.1v46.37h52.12s5.06,1.39,5.4,7.15-4.71,7.5-4.71,7.5h-52.47l.35,105.12s-.52,17.08,10.29,23.53c10.81,6.45,12.2,5.75,20.57,5.58s13.6-.87,17.43-2.96,8.26.81,9.16,2.77c1.06,2.53,1.66,5.16.32,8.08,0,0-3.1,7.15-27.37,7.15,0,0-14.95,1.13-27.09-5.92-12.13-7.05-17.59-16.93-18.81-32.16-1.22-15.24,0-110.97,0-110.97l-19.57-.1s-6.48-.1-5.92-8.36c.47-6.94,9.31-6.77,9.31-6.77h14.3"/>
  <path class="cls-1" d="M1899.95,209.04c-7.39,0-13.39,5.99-13.39,13.39s5.99,13.39,13.39,13.39,13.39-5.99,13.39-13.39-5.99-13.39-13.39-13.39ZM1900.07,232.46c-5.65,0-10.23-4.58-10.23-10.23s4.58-10.23,10.23-10.23,10.23,4.58,10.23,10.23-4.58,10.23-10.23,10.23Z"/>
  <path class="cls-1" d="M1902.96,222.24s2.97.19,2.95-2.61c-.02-3.87-3.41-3.65-3.41-3.65h-7.55v13.15h2.85v-5.24h2.26l2.01,4.91,3.83-.05-2.96-6.5ZM1901.26,222.24h-3.21v-4.29h3.64s1.51.41,1.46,2.38c0,0,0,1.82-1.9,1.91Z"/>
</svg>