<?xml version="1.0" encoding="UTF-8"?>
<svg id="svg2" xmlns="http://www.w3.org/2000/svg" viewBox="0 0 2960 410.54">
  <defs>
    <style>
      .cls-1 {
        stroke-width: 0px;
      }
    </style>
  </defs>
  <g id="layer1">
    <g id="g4137">
      <path id="path4139" class="cls-1" d="M145.26,171.38c-72.06-15.39-100.77-24.16-100.77-68.55S82.56,22.9,145.82,22.9c44.84,0,91.73,29.45,99.99,83.12l8.98-.02-2.35-85.68C227.54,6.7,179.83,0,155.2,0,60.92,0,0,53.04,0,114.06c0,75.2,54.48,94.33,155.2,115.29,40.43,8.6,74.45,20.43,74.45,69.8,0,63.95-54.54,88.48-97.3,88.48-61.2,0-103.29-42.4-117.37-101.55H5.89l3.5,95.53c34.16,20.72,70.25,28.94,106.58,28.94,108.95,0,158.12-57.9,158.12-126.34-.01-81.98-55.65-97.37-128.83-112.83h0Z"/>
      <path id="path4141" class="cls-1" d="M1383.82,351.41l-105.61-143c63.69-3.11,111.02-45.65,111.02-108.57,0-51.18-44.65-93.68-128.88-93.68h-146.34l-.02,8.62h.02c13.64,0,29.88,3.05,29.88,25.9v329.37c-.11,25.71-20.92,25.71-29.9,25.71v8.65h117.15v-8.65c-9.47,0-29.86,0-29.86-25.9V29.07h31.56c71.54,0,102.98,28.49,102.98,80.77,0,47.08-20.9,87.99-120.13,87.99l146.11,206.57h75.15l.05-8.65c-16.78,0-35.62-20.92-53.16-44.35h0Z"/>
      <path id="path4143" class="cls-1" d="M792.07,14.78l-.02-8.62h-107.83v8.62c39.13,0,48.2,15.39,34.2,63.52-5.47,18.87-78.45,270.45-78.45,270.45h-1.17s-77.75-257.67-83.82-278.49c-8.09-27.69-21.66-55.49,26.3-55.49V6.16h-136.94v8.62c22.02,0,38.01,6.77,45.59,27.75,4.75,12.93,33.78,96.99,33.78,108.15s-35.79,129.38-53.96,192.83l-1.17-.02s-78.4-251.63-86.98-279.34c-4.21-13.7-8.25-22.16-8.25-31.3,0-12.08,8.25-18.07,27.75-18.07V6.16h-117.68v8.62c26.5,0,33.2,17.27,40.21,39.46l113.16,353.86h39.25l61.38-226.24h1.15l66.79,226.24h41.17l101.68-350.77c7.64-27.12,25.29-42.56,43.86-42.56h0Z"/>
      <path id="path4145" class="cls-1" d="M1047.16,345.8L923.74,6.18l-70.41-.02v8.62c9,0,19.81,2.63,19.86,18.03,0,5.31-1.88,13.09-4.68,21.43-1.77,5.33-104.25,300.81-104.25,300.81-11.68,33.94-20.96,40.7-45.59,40.7l-.05,8.65h104.47v-8.65c-28.25,0-36.6-10.86-36.64-20.12,0-8.62,3-19.93,8.84-36.62l29.7-89.17h133.48l25.4,71.92c12.32,33.94,16.22,44.39,16.22,55.51,0,11.71-5.42,18.48-29.68,18.48v8.65h119.89v-8.65c-26.4,0-27.95-8.62-43.16-49.96h0ZM832.82,227.22l58.87-169.67h1.17l57.95,169.68h-117.99Z"/>
      <path id="path4147" class="cls-1" d="M1624.57,0c-90.74,0-192.1,85.66-192.1,206.53,0,111.59,65.59,204.01,183.34,204.01s190.31-104.13,190.31-210.22c0-89.94-51.54-200.32-181.55-200.32ZM1634.3,379.5c-81.55,0-155.06-107.76-155.06-194.85,0-123.02,74.92-150.75,123.06-150.75,79.72,0,149.94,80.75,149.94,188.65-.03,98.07-41.76,156.96-117.94,156.96Z"/>
      <path id="path4149" class="cls-1" d="M2770.34,371.72l-163.43-186.12s114.06-124.46,126.56-137.93c17.51-18.99,32.3-32.88,56.56-32.88V6.16h-113.18v8.62c48.56,0,33.69,23.59,25.2,32.88-8.51,9.26-144.39,157.62-144.39,157.62l173.26,199.11h78.61v-8.65c-17.55.01-26.91-9.24-39.18-24.03h0Z"/>
      <path id="path4151" class="cls-1" d="M2960,14.78V6.16h-117.15v8.62c9.5,0,29.88,0,29.88,25.9v329.18c0,25.9-20.87,25.9-29.88,25.9v8.65h117.15v-8.65c-9.47,0-29.84,0-29.84-25.87V40.68c0-25.9,20.37-25.9,29.84-25.9h0Z"/>
      <path id="path4153" class="cls-1" d="M2550.73,369.89V40.68c0-25.9,20.36-25.9,29.82-25.9V6.16h-117.13v8.62c9.5,0,29.9,0,29.9,25.9v329.21c0,25.87-20.87,25.87-29.9,25.87v8.65h117.13v-8.65c-9.45,0-29.82,0-29.82-25.87Z"/>
      <path id="path4155" class="cls-1" d="M2292.05,171.38c-72.03-15.39-100.75-24.16-100.75-68.55s38.08-79.92,101.34-79.92c44.87,0,91.75,29.45,99.97,83.12h8.98l-2.31-85.7c-24.97-13.62-72.68-20.32-97.24-20.32-94.33,0-155.2,53.04-155.2,114.06,0,75.2,54.45,94.33,155.2,115.29,40.4,8.6,74.39,20.43,74.39,69.8,0,63.95-54.5,88.48-97.24,88.48-61.17,0-103.31-42.4-117.39-101.55h-9.16l3.58,95.53c34.18,20.72,70.27,28.94,106.55,28.94,108.95,0,158.12-57.9,158.12-126.34.01-82-55.61-97.37-128.83-112.83h0Z"/>
      <path id="path4157" class="cls-1" d="M2151.42,6.16h-104.49v8.62c50.6,0,37.27,33.24,30.95,53.02-13.96,43.39-92.13,280.75-92.13,280.75h-1.19l-96.94-289.38c-2.37-6.81-6.47-19.76-6.47-26.48,0-11.73,7.45-17.91,29.9-17.91V6.16h-119.86v8.62c26.34,0,29.07,14.2,34.34,27.75l128.17,365.58h36.73s108.93-332.23,118.07-360.44c8.6-26.54,21.71-32.9,42.92-32.9V6.16h0Z"/>
    </g>
  </g>
</svg>