<svg xmlns="http://www.w3.org/2000/svg" xmlns:xlink="http://www.w3.org/1999/xlink" fill="none" height="166" viewBox="0 0 414 166" width="414"><clipPath id="a"><path d="m0 0h414v166h-414z"></path></clipPath><g clip-path="url(#a)"><g fill="#fff"><path d="m12.0593 164.639v-67.8679h13.6101v67.8679z"></path><path d="m77.9709 164.639-27.9957-51.535c.4011 7.366.4813 15.132.4813 20.844v30.691h-13.6102v-67.8679h18.0221l28.584 52.5219c-.4011-7.286-.4813-15.532-.4813-21.35v-31.1719h13.5032l.107 67.8679z"></path><path d="m121.449 125.301h31.044v10.728h-31.044v28.61h-13.611v-67.8679h48.077v10.6219h-34.493v17.908z"></path><path d="m211.399 164.639h-49.067v-67.8679h48.077v10.6219h-34.493v17.908h32.033v10.728h-32.033v17.908h35.483v10.729z"></path><path d="m273.273 164.639h-14.867c-1.685-4.617-2.674-8.754-3.343-15.132-.882-7.286-3.636-11.716-9.171-12.09-1.872-.107-3.556-.107-5.321-.107h-7.888v27.329h-13.61v-67.8679h24.84c3.931 0 6.498.1067 9.867.4803 9.84 1.1743 17.835 6.2986 17.835 17.9876 0 8.754-5.214 14.252-13.289 16.52 6.711 2.562 9.251 8.167 10.053 15.746.883 8.273 2.166 13.264 4.92 17.107zm-31.232-37.47c2.353 0 4.038 0 5.509-.107 5.428-.48 9.759-3.149 9.759-9.741s-3.636-8.941-8.957-9.635c-1.578-.186-3.262-.293-5.722-.293h-9.947v19.776z"></path><path d="m320.681 164.639-27.996-51.535c.401 7.366.481 15.132.481 20.844v30.691h-13.61v-67.8679h18.022l28.584 52.5219c-.401-7.286-.481-15.532-.481-21.35v-31.1719h13.503l.107 67.8679z"></path><path d="m414 130.718c0 21.244-12.701 35.309-33.611 35.309s-33.611-14.065-33.611-35.309c0-21.243 12.621-35.308 33.611-35.308s33.611 13.958 33.611 35.308zm-14.279 0c0-15.932-7.299-25.167-19.305-25.167s-19.413 9.235-19.413 25.167c0 15.933 7.3 25.167 19.413 25.167s19.305-9.341 19.305-25.167z"></path></g><g fill="#d61016"><path d="m.00000007 25.7807c1.89846993 20.7099 5.29431993 41.2864 10.21429993 61.4893.7487 3.0158 7.1928 2.2418 6.3639-1.1742-4.813-19.8026-8.15541-39.8987-10.0004-60.1817-.29413-3.2826-6.871929-3.336-6.57779993-.1334z"></path><path d="m26.8192 2.32184.7487 44.67586c.1337 7.3393.1337 14.6785.4011 21.991.1872 4.9907 1.3102 15.9328 9.0378 13.1573 3.7434-1.3345 7.3265-3.4695 10.9095-5.1775l11.8454-5.6312c3.69-1.7614-.6952-5.9248-3.5831-4.5637l-11.8453 5.6312-5.9361 2.8289-2.968 1.4145-1.4707.6939c1.7648 1.3878 2.4333 1.6547 1.9787.7473.0535-.6672-.7219-2.0283-.8824-2.7222-.2139-.9341-.3208-1.8682-.4278-2.8023-.1872-1.8948-.2406-3.8164-.2674-5.7112-.0802-4.1901-.1337-8.3801-.2139-12.5968l-.8824-51.56143c-.0535-3.122504-6.5243-3.89646-6.4708-.37363z"></path><path d="m80.6716 106.432c.6952-20.4697 2.1391-40.9127 4.3584-61.3025l-6.1499 1.3878c3.5028 16.1997 7.4869 32.2926 11.9256 48.2788.8556 3.1225 4.9199 1.2543 5.936-.6939 7.1663-13.7177 10.1343-29.0366 12.9953-44.1154l-6.15 1.3878c2.808 16.3598 6.096 32.6395 9.84 48.8124.802 3.416 6.845.988 6.123-2.0549-3.743-16.173-7.032-32.4527-9.84-48.8125-.588-3.4695-5.695-.9608-6.15 1.3878-2.781 14.625-5.6685 29.4102-12.6207 42.7276l5.9361-.6939c-4.4387-15.9862-8.396-32.0791-11.9256-48.2788-.7219-3.2826-5.8558-1.1742-6.15 1.3878-2.2193 20.363-3.6632 40.8061-4.3584 61.3029-.1337 3.789 6.043 2.375 6.15-.721z"></path><path d="m125.834 40.726c3.369 19.6958 5.802 39.5518 7.326 59.461.241 3.283 6.819 3.363 6.578.16-1.578-20.3628-4.118-40.6458-7.54-60.7686-.508-3.0424-6.952-2.3218-6.364 1.1743z"></path><path d="m160.113 39.8186c-5.321 10.4885-7.166 22.6049-4.84 34.1875 1.043 5.2309 2.755 11.3424 7.354 14.5984 3.984 2.8556 9.305 3.6029 14.011 2.3485 11.364-3.0424 17.086-15.1321 17.327-26.0475.24-10.8621-2.273-24.9-12.648-30.638-11.15-6.1649-24.359 4.19-23.37 16.2264.134 1.628 2.166 1.8148 3.316 1.281 1.551-.7206 2.38-2.3485 2.246-3.9765-.267-3.3894 1.738-6.6454 4.626-8.3267 3.449-2.0283 7.62-1.2543 10.776.9608 7.487 5.2308 9.332 16.1463 9.385 24.6598.054 7.7662-2.754 17.7743-11.284 20.1228-3.449.9341-7.46.4537-10.348-1.7347-3.529-2.6688-4.786-7.3393-5.668-11.4759-2.22-10.2216-.856-21.0836 3.877-30.4244 1.952-3.8164-3.049-5.0975-4.76-1.7615z"></path></g></g></svg>